<svg width="20" height="20" viewBox="0 0 20 20" fill="none" xmlns="http://www.w3.org/2000/svg">
<g id="url">
<path id="Path" d="M7.40429 5.01207C5.04874 7.44921 5.56276 11.4937 8.261 13.2854C8.34991 13.3445 8.46819 13.3328 8.54456 13.2582C9.11261 12.7031 9.59315 12.1655 10.0139 11.4817C10.0783 11.3771 10.0383 11.2414 9.93026 11.1829C9.5187 10.9599 9.10917 10.5418 8.87862 10.1002L8.87835 10.1003C8.60218 9.55042 8.50815 8.93398 8.65436 8.29734C8.65452 8.29738 8.65468 8.29742 8.65483 8.29742C8.82307 7.48234 9.69811 6.72414 10.3664 6.02293C10.365 6.02246 10.3637 6.02195 10.3623 6.02148L12.8663 3.46578C13.8642 2.44731 15.5056 2.43891 16.5138 3.44715C17.5322 4.445 17.5491 6.09468 16.5512 7.11312L15.0345 8.67281C14.9643 8.74499 14.9415 8.85031 14.9744 8.9455C15.3236 9.9582 15.4095 11.3861 15.1755 12.465C15.1689 12.4951 15.2062 12.5149 15.2278 12.4928L18.4558 9.19816C20.518 7.09347 20.5005 3.66676 18.417 1.58324C16.2907 -0.543044 12.8292 -0.525348 10.7247 1.6225L7.41722 4.99824C7.41284 5.00285 7.4087 5.00754 7.40429 5.01207Z" fill="currentColor"/>
<path id="Path_2" d="M13.439 13.7495C13.4389 13.7496 13.4388 13.7498 13.4388 13.7499C13.4409 13.749 13.4428 13.7482 13.4449 13.7473C14.1036 12.5426 14.2333 11.161 13.9246 9.81421L13.9232 9.81565L13.9217 9.81499C13.6285 8.61542 12.8241 7.42425 11.7316 6.69085C11.6376 6.62777 11.4875 6.63507 11.3995 6.70624C10.8461 7.1537 10.3044 7.72749 9.94697 8.45972C9.89083 8.57468 9.93287 8.71276 10.0435 8.77698C10.4583 9.0178 10.8329 9.37038 11.0837 9.83847L11.0841 9.83819C11.2796 10.1689 11.4722 10.7963 11.3474 11.4704C11.3474 11.4704 11.3472 11.4704 11.3472 11.4704C11.2308 12.3642 10.3282 13.184 9.61068 13.9228L9.61103 13.9232C9.06486 14.4817 7.67646 15.8971 7.12052 16.465C6.12267 17.4835 4.47299 17.5003 3.45455 16.5024C2.43612 15.5046 2.41928 13.8549 3.41713 12.8365L4.93834 11.2721C5.00728 11.2012 5.03072 11.0982 5.00006 11.0041C4.66228 9.96776 4.56975 8.57202 4.78295 7.49441C4.78889 7.46437 4.75193 7.44519 4.73049 7.46706L1.551 10.7122C-0.53228 12.8385 -0.514624 16.3003 1.5903 18.4052C3.71647 20.4884 7.16049 20.4532 9.24369 18.3271C9.9674 17.5175 13.0654 14.6492 13.439 13.7495Z" fill="currentColor"/>
</g>
</svg>
