<svg width="20" height="20" viewBox="0 0 20 20" fill="none" xmlns="http://www.w3.org/2000/svg">
  <path d="M1.50145 5.01207C-0.85409 7.44921 -0.340067 11.4937 2.35817 13.2854C2.44708 13.3445 2.56536 13.3328 2.64173 13.2582C3.20977 12.7031 3.69032 12.1655 4.1111 11.4817C4.17548 11.3771 4.13544 11.2414 4.02743 11.1829C3.61587 10.9599 3.20634 10.5418 2.97579 10.1002L2.97552 10.1003C2.69934 9.55042 2.60532 8.93398 2.75153 8.29734C2.75169 8.29738 2.75184 8.29742 2.752 8.29742C2.92024 7.48234 3.79528 6.72414 4.4636 6.02293C4.46219 6.02246 4.46083 6.02195 4.45942 6.02148L6.96344 3.46578C7.96133 2.44731 9.60274 2.43891 10.611 3.44715C11.6294 4.445 11.6462 6.09468 10.6484 7.11312L9.13168 8.67281C9.06149 8.74499 9.03871 8.85031 9.07156 8.9455C9.42078 9.9582 9.50668 11.3861 9.27266 12.465C9.26609 12.4951 9.30336 12.5149 9.32496 12.4928L12.553 9.19816C14.6152 7.09347 14.5977 3.66676 12.5141 1.58324C10.3879 -0.543044 6.92633 -0.525348 4.82188 1.6225L1.51438 4.99824C1.51001 5.00285 1.50587 5.00754 1.50145 5.01207V5.01207Z" fill="currentColor"/>
  <path d="M13.439 7.10168C13.4389 7.10179 13.4388 7.10191 13.4388 7.10203C13.4409 7.10117 13.4428 7.10035 13.4449 7.09945C14.1036 5.8948 14.2333 4.5132 13.9246 3.16637L13.9232 3.16781L13.9217 3.16715C13.6285 1.96758 12.8241 0.776408 11.7316 0.0430105C11.6376 -0.0200754 11.4875 -0.0127707 11.3995 0.0584011C10.8461 0.505862 10.3044 1.07965 9.94697 1.81188C9.89083 1.92684 9.93287 2.06492 10.0435 2.12914C10.4583 2.36996 10.8329 2.72254 11.0837 3.19062L11.0841 3.19035C11.2796 3.52101 11.4722 4.14844 11.3474 4.82258C11.3474 4.82258 11.3472 4.82258 11.3472 4.82258C11.2308 5.71636 10.3282 6.53621 9.61068 7.27496L9.61103 7.27531C9.06486 7.83382 7.67646 9.24921 7.12052 9.81718C6.12267 10.8356 4.47299 10.8525 3.45455 9.8546C2.43612 8.85675 2.41928 7.20707 3.41713 6.18863L4.93834 4.62426C5.00728 4.55336 5.03072 4.45031 5.00006 4.35629C4.66229 3.31992 4.56975 1.92418 4.78295 0.846564C4.78889 0.816525 4.75193 0.797346 4.73049 0.819221L1.551 4.06433C-0.53228 6.19062 -0.514624 9.65249 1.5903 11.7574C3.71647 13.8406 7.16049 13.8054 9.24369 11.6792C9.9674 10.8697 13.0654 8.00136 13.439 7.10168V7.10168Z" fill="currentColor"/>
</svg>
